<?xml version="1.0" encoding="UTF-8"?>
<svg xmlns="http://www.w3.org/2000/svg" xmlns:xlink="http://www.w3.org/1999/xlink" viewBox="0 0 50 50" width="50px" height="50px">
<g id="surface28740051">
<path style=" stroke:none;fill-rule:nonzero;fill:rgb(100%,100%,100%);fill-opacity:1;" d="M 7.707031 6.292969 L 6.292969 7.707031 L 23.585938 25 L 6.292969 42.292969 L 7.707031 43.707031 L 25 26.414062 L 32.171875 33.585938 L 33.585938 32.171875 L 26.414062 25 L 43.707031 7.707031 L 42.292969 6.292969 L 25 23.585938 Z M 37.980469 30.988281 C 37.71875 30.996094 37.472656 31.105469 37.292969 31.292969 L 32.378906 36.203125 C 32.132812 36.394531 31.988281 36.6875 31.988281 37 C 31.984375 37.308594 32.128906 37.601562 32.375 37.792969 C 32.378906 37.792969 32.378906 37.796875 32.382812 37.796875 L 37.292969 42.707031 C 37.542969 42.96875 37.917969 43.074219 38.265625 42.980469 C 38.617188 42.890625 38.890625 42.617188 38.980469 42.265625 C 39.074219 41.917969 38.96875 41.542969 38.707031 41.292969 L 35.414062 38 L 43 38 C 45.773438 38 48 40.226562 48 43 C 48 45.773438 45.773438 48 43 48 L 34 48 C 33.640625 47.996094 33.304688 48.183594 33.121094 48.496094 C 32.941406 48.808594 32.941406 49.191406 33.121094 49.503906 C 33.304688 49.816406 33.640625 50.003906 34 50 L 43 50 C 46.71875 50 49.714844 47.050781 49.921875 43.378906 C 49.972656 43.261719 50 43.128906 50 43 C 50 39.144531 46.855469 36 43 36 L 35.414062 36 L 38.707031 32.707031 C 39.003906 32.417969 39.089844 31.980469 38.929688 31.601562 C 38.769531 31.21875 38.394531 30.976562 37.980469 30.992188 Z M 37.980469 30.988281 "/>
</g>
</svg>
