<?xml version="1.0" encoding="UTF-8"?>
<svg xmlns="http://www.w3.org/2000/svg" xmlns:xlink="http://www.w3.org/1999/xlink" viewBox="0 0 100 100" width="100px" height="100px">
<g id="surface4213587">
<path style=" stroke:none;fill-rule:nonzero;fill:rgb(20.392157%,59.607846%,85.882354%);fill-opacity:1;" d="M 93.148438 6.851562 C 91.25 4.953125 88.757812 4 86.265625 4 C 83.773438 4 81.28125 4.953125 79.382812 6.851562 C 79.382812 6.851562 79.242188 6.984375 79.0625 7.171875 C 79.046875 7.1875 79.023438 7.195312 79.007812 7.210938 L 8.601562 77.609375 C 8.359375 77.859375 8.179688 78.164062 8.085938 78.507812 L 4.070312 93.484375 C 3.882812 94.171875 4.078125 94.90625 4.585938 95.414062 C 4.96875 95.796875 5.476562 96 6 96 C 6.171875 96 6.34375 95.976562 6.515625 95.929688 L 21.492188 91.914062 C 21.835938 91.820312 22.140625 91.640625 22.390625 91.390625 L 92.789062 21 C 92.8125 20.976562 92.820312 20.945312 92.835938 20.921875 C 93.015625 20.742188 93.140625 20.617188 93.140625 20.617188 C 96.953125 16.8125 96.953125 10.648438 93.148438 6.851562 Z M 90.320312 9.679688 C 92.554688 11.914062 92.554688 15.554688 90.320312 17.789062 C 89.65625 18.445312 89.09375 19.015625 88.609375 19.5 L 80.5 11.390625 C 81.421875 10.46875 82.210938 9.679688 82.210938 9.679688 C 83.289062 8.59375 84.734375 8 86.265625 8 C 87.796875 8 89.234375 8.601562 90.320312 9.679688 Z M 11.210938 82.304688 L 17.695312 88.789062 L 8.828125 91.171875 Z M 11.210938 82.304688 "/>
</g>
</svg>
