<?xml version="1.0" encoding="UTF-8"?>
<svg xmlns="http://www.w3.org/2000/svg" xmlns:xlink="http://www.w3.org/1999/xlink" viewBox="0 0 100 100" width="100px" height="100px">
<g id="surface64148730">
<path style=" stroke:none;fill-rule:nonzero;fill:rgb(20.392157%,59.607846%,85.882354%);fill-opacity:1;" d="M 50 4 C 24.59375 4 4 24.59375 4 50 C 4 75.40625 24.59375 96 50 96 C 75.40625 96 96 75.40625 96 50 C 96 24.59375 75.40625 4 50 4 Z M 50 22 C 53.3125 22 56 24.6875 56 28 C 56 31.3125 53.3125 34 50 34 C 46.6875 34 44 31.3125 44 28 C 44 24.6875 46.6875 22 50 22 Z M 58 76 L 42 76 L 42 72 L 46 72 L 46 46 L 42 46 L 42 42 L 54 42 L 54 72 L 58 72 Z M 58 76 "/>
</g>
</svg>
