<?xml version="1.0" encoding="UTF-8"?>
<svg xmlns="http://www.w3.org/2000/svg" xmlns:xlink="http://www.w3.org/1999/xlink" viewBox="0 0 50 50" width="50px" height="50px">
<g id="surface25418222">
<path style="fill-rule:nonzero;fill:rgb(100%,100%,100%);fill-opacity:1;stroke-width:4;stroke-linecap:butt;stroke-linejoin:round;stroke:rgb(100%,100%,100%);stroke-opacity:1;stroke-miterlimit:10;" d="M 165.125832 86 C 165.125832 129.654683 129.654683 165.125832 86 165.125832 C 42.345317 165.125832 6.874168 129.654683 6.874168 86 C 6.874168 60.926753 18.578685 38.576766 36.80252 24.08022 L 13.764841 24.08022 C 12.513242 24.093974 11.371673 23.447544 10.738997 22.374744 C 10.120074 21.301945 10.120074 19.981576 10.738997 18.908777 C 11.371673 17.835977 12.513242 17.175793 13.764841 17.203301 L 48.163191 17.203301 L 48.163191 51.601651 C 48.176945 52.839496 47.530514 53.994818 46.457715 54.613741 C 45.384916 55.246418 44.050793 55.246418 42.991748 54.613741 C 41.918948 53.994818 41.258764 52.839496 41.286272 51.601651 L 41.286272 29.306679 C 24.534097 42.537871 13.764841 62.976075 13.764841 86 C 13.764841 125.941147 46.058854 158.235159 86 158.235159 C 125.941147 158.235159 158.235159 125.941147 158.235159 86 C 158.235159 46.058854 125.941147 13.764841 86 13.764841 C 84.762155 13.778595 83.606832 13.132165 82.974156 12.059365 C 82.355233 10.986566 82.355233 9.652444 82.974156 8.579644 C 83.606832 7.520599 84.762155 6.860415 86 6.874168 C 129.654683 6.874168 165.125832 42.345317 165.125832 86 Z M 165.125832 86 " transform="matrix(0.284012,0,0,0.284012,0.575,0.575)"/>
<path style=" stroke:none;fill-rule:nonzero;fill:rgb(100%,100%,100%);fill-opacity:1;" d="M 25 2.527344 C 24.648438 2.523438 24.320312 2.710938 24.140625 3.011719 C 23.964844 3.316406 23.964844 3.695312 24.140625 4 C 24.320312 4.304688 24.648438 4.488281 25 4.484375 C 36.34375 4.484375 45.515625 13.65625 45.515625 25 C 45.515625 36.34375 36.34375 45.515625 25 45.515625 C 13.65625 45.515625 4.484375 36.34375 4.484375 25 C 4.484375 18.460938 7.542969 12.65625 12.300781 8.898438 L 12.300781 15.230469 C 12.292969 15.582031 12.480469 15.910156 12.785156 16.085938 C 13.085938 16.265625 13.464844 16.265625 13.769531 16.085938 C 14.074219 15.910156 14.257812 15.582031 14.253906 15.230469 L 14.253906 5.460938 L 4.484375 5.460938 C 4.128906 5.453125 3.804688 5.640625 3.625 5.945312 C 3.449219 6.25 3.449219 6.625 3.625 6.929688 C 3.804688 7.234375 4.128906 7.417969 4.484375 7.414062 L 11.027344 7.414062 C 5.851562 11.53125 2.527344 17.878906 2.527344 25 C 2.527344 37.398438 12.601562 47.472656 25 47.472656 C 37.398438 47.472656 47.472656 37.398438 47.472656 25 C 47.472656 12.601562 37.398438 2.527344 25 2.527344 Z M 25 2.527344 "/>
</g>
</svg>
