<?xml version="1.0" encoding="UTF-8"?>
<svg xmlns="http://www.w3.org/2000/svg" xmlns:xlink="http://www.w3.org/1999/xlink" viewBox="0 0 100 100" width="100px" height="100px">
<g id="surface1364624">
<path style=" stroke:none;fill-rule:nonzero;fill:rgb(100%,100%,100%);fill-opacity:1;" d="M 50 10 C 27.929688 10 10 27.929688 10 50 C 9.992188 50.71875 10.367188 51.390625 10.992188 51.757812 C 11.617188 52.117188 12.382812 52.117188 13.007812 51.757812 C 13.632812 51.390625 14.007812 50.71875 14 50 C 14 30.09375 30.09375 14 50 14 C 62.492188 14 73.453125 20.359375 79.914062 30 L 66 30 C 65.28125 29.992188 64.609375 30.367188 64.242188 30.992188 C 63.882812 31.617188 63.882812 32.382812 64.242188 33.007812 C 64.609375 33.632812 65.28125 34.007812 66 34 L 86 34 L 86 14 C 86.007812 13.460938 85.796875 12.9375 85.414062 12.554688 C 85.03125 12.171875 84.507812 11.960938 83.96875 11.96875 C 82.867188 11.992188 81.984375 12.898438 82 14 L 82 26.023438 C 74.695312 16.296875 63.078125 10 50 10 Z M 87.96875 47.96875 C 86.867188 47.992188 85.984375 48.898438 86 50 C 86 69.90625 69.90625 86 50 86 C 37.507812 86 26.539062 79.640625 20.085938 70 L 34 70 C 34.71875 70.015625 35.390625 69.632812 35.757812 69.015625 C 36.117188 68.390625 36.117188 67.617188 35.757812 66.992188 C 35.390625 66.375 34.71875 65.992188 34 66 L 16.890625 66 C 16.632812 65.953125 16.375 65.953125 16.117188 66 L 14 66 L 14 86 C 13.992188 86.71875 14.367188 87.390625 14.992188 87.757812 C 15.617188 88.117188 16.382812 88.117188 17.007812 87.757812 C 17.632812 87.390625 18.007812 86.71875 18 86 L 18 73.96875 C 25.296875 83.695312 36.921875 90 50 90 C 72.070312 90 90 72.070312 90 50 C 90.007812 49.460938 89.796875 48.9375 89.414062 48.554688 C 89.03125 48.171875 88.507812 47.960938 87.96875 47.96875 Z M 87.96875 47.96875 "/>
</g>
</svg>
